<svg width="217" height="37" viewBox="0 0 325 57" fill="none" xmlns="http://www.w3.org/2000/svg">
<path d="M18.3721 55.6114H6.10352e-05L7.36169 5.36023H25.7978L18.3721 55.6114Z" fill="#203B88"/>
<path d="M76.6891 55.6114H58.253L63.054 20.0835H81.4901L76.6891 55.6114Z" fill="#203B88"/>
<path d="M44.4899 28.0853H23.4933L40.9051 5.36023H61.9018L44.4899 28.0853Z" fill="#F69400"/>
<path d="M44.4899 31.0939H23.4933L35.0798 55.6114H56.0765L44.4899 31.0939Z" fill="#F69400"/>
<path d="M74.2565 17.971C79.2061 17.971 83.2185 14.1305 83.2185 9.39308C83.2185 4.65564 79.2061 0.815186 74.2565 0.815186C69.3069 0.815186 65.2945 4.65564 65.2945 9.39308C65.2945 14.1305 69.3069 17.971 74.2565 17.971Z" fill="#203B88"/>
<path d="M123.739 25.2047C123.739 25.2047 122.075 23.9244 121.371 23.3483C114.97 17.9711 105.175 20.9797 102.871 29.3016C101.014 36.2151 106.008 40.5681 111.961 40.12C115.162 39.9279 117.978 38.9037 120.539 37.0473C120.923 36.7272 121.371 36.5352 122.267 35.9591C122.075 37.2393 121.947 38.0715 121.819 38.9037C120.987 43.1287 118.874 54.2671 118.874 54.2671L116.634 54.8432C116.634 54.8432 104.727 56.8277 98.774 55.0353C91.1563 52.7308 86.2272 47.6096 84.7549 39.7359C82.8984 29.8137 86.2272 21.3638 93.1407 14.1942C99.7982 7.28071 107.992 4.27204 117.466 4.91218C119.963 5.10422 124.828 6.38451 124.828 6.38451L126.236 6.83261L123.739 25.2047Z" fill="#203B88"/>
<path d="M127.004 34.7426C127.196 22.4519 135.518 11.6335 146.336 7.47259C150.946 5.68019 155.619 4.59195 160.484 4.91202C167.717 5.29611 174.119 7.66463 178.664 13.5539C181.8 17.5868 182.953 22.3239 182.633 27.381C181.8 41.2081 172.71 51.8344 159.203 55.0991C153.378 56.5075 147.553 56.6355 141.92 54.8431C134.75 52.6026 129.565 48.1216 127.836 40.4399C127.452 38.5835 127.324 36.6631 127.004 34.7426ZM156.515 21.1716C149.921 20.9796 145.952 26.3568 145.44 31.67C144.928 37.1112 148.321 40.5679 153.762 40.5039C158.819 40.4399 163.62 36.215 164.324 31.2219C165.157 24.9485 162.212 21.1716 156.515 21.1716Z" fill="#203B88"/>
<path d="M220.657 32.7583L223.666 5.42425H241.206L233.46 55.6114L215.92 55.5473L204.397 29.1735L200.877 55.5473L183.465 55.6114L191.274 5.36023L193.195 5.42425H206.83L208.366 5.36023L220.657 32.7583Z" fill="#203B88"/>
<path d="M264.955 5.42425C270.588 5.42425 283.903 5.36023 283.903 5.36023L281.855 21.5558L271.932 20.9797L266.427 55.6114H248.055L253.048 21.1717L243.446 21.8759L245.494 5.42425H264.955Z" fill="#203B88"/>
<path d="M269.628 55.6113L274.429 46.0732L294.977 5.42419H314.694L325 55.5473H305.348L304.836 49.1459L291.201 49.2099L289.024 55.5473L269.628 55.6113ZM302.339 22.1319L296.13 37.3033H303.363L302.339 22.1319Z" fill="#203B88"/>
</svg>
