<svg width="24" height="25" viewBox="0 0 24 25" fill="none" xmlns="http://www.w3.org/2000/svg">
<path d="M13.0967 13.5607C13.0967 13.761 13.0208 13.9531 12.8857 14.0948C12.7507 14.2364 12.5675 14.316 12.3765 14.316C12.1855 14.316 12.0023 14.2364 11.8672 14.0948C11.7321 13.9531 11.6562 13.761 11.6562 13.5607C11.6562 13.3604 11.7321 13.1682 11.8672 13.0266C12.0023 12.8849 12.1855 12.8054 12.3765 12.8054C12.5675 12.8054 12.7507 12.8849 12.8857 13.0266C13.0208 13.1682 13.0967 13.3604 13.0967 13.5607ZM8.05518 16.582C8.24619 16.582 8.42938 16.5024 8.56444 16.3607C8.69951 16.2191 8.77539 16.027 8.77539 15.8266C8.77539 15.6263 8.69951 15.4342 8.56444 15.2926C8.42938 15.1509 8.24619 15.0713 8.05518 15.0713C7.86416 15.0713 7.68097 15.1509 7.54591 15.2926C7.41084 15.4342 7.33496 15.6263 7.33496 15.8266C7.33496 16.027 7.41084 16.2191 7.54591 16.3607C7.68097 16.5024 7.86416 16.582 8.05518 16.582ZM8.77539 18.0926C8.77539 18.2929 8.69951 18.4851 8.56444 18.6267C8.42938 18.7684 8.24619 18.8479 8.05518 18.8479C7.86416 18.8479 7.68097 18.7684 7.54591 18.6267C7.41084 18.4851 7.33496 18.2929 7.33496 18.0926C7.33496 17.8923 7.41084 17.7002 7.54591 17.5585C7.68097 17.4169 7.86416 17.3373 8.05518 17.3373C8.24619 17.3373 8.42938 17.4169 8.56444 17.5585C8.69951 17.7002 8.77539 17.8923 8.77539 18.0926ZM10.2158 16.582C10.4068 16.582 10.59 16.5024 10.7251 16.3607C10.8602 16.2191 10.936 16.027 10.936 15.8266C10.936 15.6263 10.8602 15.4342 10.7251 15.2926C10.59 15.1509 10.4068 15.0713 10.2158 15.0713C10.0248 15.0713 9.84162 15.1509 9.70655 15.2926C9.57149 15.4342 9.49561 15.6263 9.49561 15.8266C9.49561 16.027 9.57149 16.2191 9.70655 16.3607C9.84162 16.5024 10.0248 16.582 10.2158 16.582ZM10.936 18.0926C10.936 18.2929 10.8602 18.4851 10.7251 18.6267C10.59 18.7684 10.4068 18.8479 10.2158 18.8479C10.0248 18.8479 9.84162 18.7684 9.70655 18.6267C9.57149 18.4851 9.49561 18.2929 9.49561 18.0926C9.49561 17.8923 9.57149 17.7002 9.70655 17.5585C9.84162 17.4169 10.0248 17.3373 10.2158 17.3373C10.4068 17.3373 10.59 17.4169 10.7251 17.5585C10.8602 17.7002 10.936 17.8923 10.936 18.0926ZM12.3765 16.582C12.5675 16.582 12.7507 16.5024 12.8857 16.3607C13.0208 16.2191 13.0967 16.027 13.0967 15.8266C13.0967 15.6263 13.0208 15.4342 12.8857 15.2926C12.7507 15.1509 12.5675 15.0713 12.3765 15.0713C12.1855 15.0713 12.0023 15.1509 11.8672 15.2926C11.7321 15.4342 11.6562 15.6263 11.6562 15.8266C11.6562 16.027 11.7321 16.2191 11.8672 16.3607C12.0023 16.5024 12.1855 16.582 12.3765 16.582ZM13.0967 18.0926C13.0967 18.2929 13.0208 18.4851 12.8857 18.6267C12.7507 18.7684 12.5675 18.8479 12.3765 18.8479C12.1855 18.8479 12.0023 18.7684 11.8672 18.6267C11.7321 18.4851 11.6562 18.2929 11.6562 18.0926C11.6562 17.8923 11.7321 17.7002 11.8672 17.5585C12.0023 17.4169 12.1855 17.3373 12.3765 17.3373C12.5675 17.3373 12.7507 17.4169 12.8857 17.5585C13.0208 17.7002 13.0967 17.8923 13.0967 18.0926ZM14.5371 16.582C14.7281 16.582 14.9113 16.5024 15.0464 16.3607C15.1814 16.2191 15.2573 16.027 15.2573 15.8266C15.2573 15.6263 15.1814 15.4342 15.0464 15.2926C14.9113 15.1509 14.7281 15.0713 14.5371 15.0713C14.3461 15.0713 14.1629 15.1509 14.0278 15.2926C13.8928 15.4342 13.8169 15.6263 13.8169 15.8266C13.8169 16.027 13.8928 16.2191 14.0278 16.3607C14.1629 16.5024 14.3461 16.582 14.5371 16.582ZM15.2573 18.0926C15.2573 18.2929 15.1814 18.4851 15.0464 18.6267C14.9113 18.7684 14.7281 18.8479 14.5371 18.8479C14.3461 18.8479 14.1629 18.7684 14.0278 18.6267C13.8928 18.4851 13.8169 18.2929 13.8169 18.0926C13.8169 17.8923 13.8928 17.7002 14.0278 17.5585C14.1629 17.4169 14.3461 17.3373 14.5371 17.3373C14.7281 17.3373 14.9113 17.4169 15.0464 17.5585C15.1814 17.7002 15.2573 17.8923 15.2573 18.0926ZM16.6978 16.582C16.8888 16.582 17.072 16.5024 17.207 16.3607C17.3421 16.2191 17.418 16.027 17.418 15.8266C17.418 15.6263 17.3421 15.4342 17.207 15.2926C17.072 15.1509 16.8888 15.0713 16.6978 15.0713C16.5067 15.0713 16.3236 15.1509 16.1885 15.2926C16.0534 15.4342 15.9775 15.6263 15.9775 15.8266C15.9775 16.027 16.0534 16.2191 16.1885 16.3607C16.3236 16.5024 16.5067 16.582 16.6978 16.582ZM15.2573 13.5607C15.2573 13.761 15.1814 13.9531 15.0464 14.0948C14.9113 14.2364 14.7281 14.316 14.5371 14.316C14.3461 14.316 14.1629 14.2364 14.0278 14.0948C13.8928 13.9531 13.8169 13.761 13.8169 13.5607C13.8169 13.3604 13.8928 13.1682 14.0278 13.0266C14.1629 12.8849 14.3461 12.8054 14.5371 12.8054C14.7281 12.8054 14.9113 12.8849 15.0464 13.0266C15.1814 13.1682 15.2573 13.3604 15.2573 13.5607ZM16.6978 14.316C16.8888 14.316 17.072 14.2364 17.207 14.0948C17.3421 13.9531 17.418 13.761 17.418 13.5607C17.418 13.3604 17.3421 13.1682 17.207 13.0266C17.072 12.8849 16.8888 12.8054 16.6978 12.8054C16.5067 12.8054 16.3236 12.8849 16.1885 13.0266C16.0534 13.1682 15.9775 13.3604 15.9775 13.5607C15.9775 13.761 16.0534 13.9531 16.1885 14.0948C16.3236 14.2364 16.5067 14.316 16.6978 14.316Z" fill="#203B88"/>
<path fill-rule="evenodd" clip-rule="evenodd" d="M7.33496 2.98615C7.52597 2.98615 7.70916 3.06572 7.84423 3.20737C7.9793 3.34902 8.05518 3.54114 8.05518 3.74147V5.25212H16.6978V3.74147C16.6978 3.54114 16.7736 3.34902 16.9087 3.20737C17.0438 3.06572 17.227 2.98615 17.418 2.98615C17.609 2.98615 17.7922 3.06572 17.9272 3.20737C18.0623 3.34902 18.1382 3.54114 18.1382 3.74147V5.25212H18.8584C19.6224 5.25212 20.3552 5.57043 20.8955 6.13703C21.4357 6.70364 21.7393 7.47211 21.7393 8.27341V19.6033C21.7393 20.4046 21.4357 21.173 20.8955 21.7396C20.3552 22.3063 19.6224 22.6246 18.8584 22.6246H5.89453C5.13048 22.6246 4.39772 22.3063 3.85746 21.7396C3.31719 21.173 3.01367 20.4046 3.01367 19.6033V8.27341C3.01367 7.47211 3.31719 6.70364 3.85746 6.13703C4.39772 5.57043 5.13048 5.25212 5.89453 5.25212H6.61475V3.74147C6.61475 3.54114 6.69063 3.34902 6.82569 3.20737C6.96076 3.06572 7.14395 2.98615 7.33496 2.98615ZM20.2988 12.05C20.2988 11.6494 20.1471 11.2651 19.8769 10.9818C19.6068 10.6985 19.2404 10.5394 18.8584 10.5394H5.89453C5.51251 10.5394 5.14613 10.6985 4.87599 10.9818C4.60586 11.2651 4.4541 11.6494 4.4541 12.05V19.6033C4.4541 20.0039 4.60586 20.3882 4.87599 20.6715C5.14613 20.9548 5.51251 21.1139 5.89453 21.1139H18.8584C19.2404 21.1139 19.6068 20.9548 19.8769 20.6715C20.1471 20.3882 20.2988 20.0039 20.2988 19.6033V12.05Z" fill="#203B88"/>
</svg>
